<?xml version="1.0" encoding="UTF-8"?>
<svg id="Calque_1" xmlns="http://www.w3.org/2000/svg" version="1.1" viewBox="0 0 638.51 165.12">
  <!-- Generator: Adobe Illustrator 29.6.1, SVG Export Plug-In . SVG Version: 2.1.1 Build 9)  -->
  <defs>
    <style>
      .st0 {
        fill: #006fe3;
      }
    </style>
  </defs>
  <g>
    <path class="st0" d="M239.09,146.52c-1.14,0-1.7-.57-1.7-1.7V35.44c0-1.13.57-1.7,1.7-1.7h13.97c1.13,0,1.7.57,1.7,1.7v6.64h.17c1.13-2.84,2.9-5.2,5.28-7.07s5.73-2.81,10.05-2.81c9.09,0,15.05,4.54,17.89,13.63.34,1.14.65,2.39.94,3.75.28,1.36.51,3.12.68,5.28.17,2.16.31,4.83.43,8.01.11,3.18.17,7.16.17,11.93s-.06,8.92-.17,12.1c-.11,3.18-.26,5.82-.43,7.92-.17,2.1-.4,3.83-.68,5.2-.28,1.36-.6,2.61-.94,3.75-2.84,9.09-8.8,13.63-17.89,13.63-4.32,0-7.67-.91-10.05-2.73-2.39-1.82-4.15-4.2-5.28-7.16h-.17v37.31c0,1.13-.57,1.7-1.7,1.7h-13.97ZM273,74.79v-9.97c0-2.44-.06-4.37-.17-5.79-.11-1.42-.23-2.47-.34-3.15-.11-.68-.23-1.3-.34-1.87-1.25-3.86-4.03-5.79-8.35-5.79s-6.93,1.93-8.18,5.79c-.23.57-.37,1.19-.43,1.87-.06.68-.14,1.73-.26,3.15-.11,1.42-.17,3.35-.17,5.79v19.93c0,2.44.06,4.37.17,5.79.11,1.42.2,2.47.26,3.15.06.68.2,1.31.43,1.87,1.25,3.86,3.97,5.79,8.18,5.79s7.1-1.93,8.35-5.79c.11-.57.23-1.19.34-1.87.11-.68.23-1.73.34-3.15.11-1.42.17-3.35.17-5.79v-9.97Z"/>
    <path class="st0" d="M304.72,115.85c-1.14,0-1.7-.57-1.7-1.7V36.29c0-1.13.57-1.7,1.7-1.7h4.94c1.13,0,1.7.57,1.7,1.7v7.33h.17c1.02-2.95,2.78-5.42,5.28-7.41,2.5-1.99,5.56-2.98,9.2-2.98,1.36,0,2.5.17,3.41.51,1.02.34,1.36,1.02,1.02,2.04l-1.36,5.11c-.34.91-1.02,1.25-2.04,1.02-.46-.11-1.31-.17-2.56-.17-3.52,0-6.59,1.59-9.2,4.77-2.61,3.18-3.92,8.12-3.92,14.82v52.81c0,1.14-.57,1.7-1.7,1.7h-4.94Z"/>
    <path class="st0" d="M384.06,75.13c0,5.11-.03,9.23-.09,12.35-.06,3.13-.14,5.65-.26,7.58-.11,1.93-.28,3.49-.51,4.69-.23,1.19-.51,2.36-.85,3.49-1.48,4.66-3.95,8.15-7.41,10.48-3.47,2.33-7.7,3.49-12.69,3.49s-9.23-1.17-12.69-3.49c-3.47-2.33-5.94-5.82-7.41-10.48-.34-1.13-.63-2.3-.85-3.49-.23-1.19-.4-2.75-.51-4.69-.11-1.93-.2-4.46-.26-7.58-.06-3.12-.08-7.24-.08-12.35s.03-9.06.08-12.18c.06-3.12.14-5.65.26-7.58.11-1.93.28-3.49.51-4.69.23-1.19.51-2.36.85-3.49,1.47-4.66,3.94-8.15,7.41-10.48,3.46-2.33,7.69-3.49,12.69-3.49s9.23,1.17,12.69,3.49c3.46,2.33,5.93,5.82,7.41,10.48.34,1.14.62,2.3.85,3.49.23,1.19.4,2.75.51,4.69.11,1.93.2,4.46.26,7.58.06,3.12.09,7.18.09,12.18ZM375.71,75.13c0-4.77-.03-8.6-.09-11.5-.06-2.9-.11-5.22-.17-6.99-.06-1.76-.17-3.12-.34-4.09-.17-.96-.43-1.9-.77-2.81-1.82-5.68-5.85-8.52-12.1-8.52s-10.28,2.84-12.1,8.52c-.34.91-.6,1.85-.77,2.81-.17.97-.28,2.33-.34,4.09-.06,1.76-.11,4.09-.17,6.99-.06,2.9-.08,6.73-.08,11.5s.03,8.63.08,11.58c.06,2.96.11,5.31.17,7.07.06,1.76.17,3.13.34,4.09.17.97.43,1.9.77,2.81,1.82,5.68,5.85,8.52,12.1,8.52s10.28-2.84,12.1-8.52c.34-.91.6-1.84.77-2.81.17-.96.28-2.33.34-4.09.06-1.76.11-4.12.17-7.07.06-2.95.09-6.81.09-11.58Z"/>
    <path class="st0" d="M418.01,116.36c-5.22,0-8.94-1.19-11.16-3.58-2.21-2.38-3.32-6.36-3.32-11.93v-58.1c0-.68-.34-1.02-1.02-1.02h-4.94c-1.14,0-1.7-.57-1.7-1.7v-3.75c0-1.13.57-1.7,1.7-1.7h4.94c.68,0,1.02-.34,1.02-1.02V10.22c0-1.13.57-1.7,1.7-1.7h4.94c1.13,0,1.7.57,1.7,1.7v23.34c0,.68.34,1.02,1.02,1.02h8.18c1.13,0,1.71.57,1.71,1.7v3.75c0,1.14-.57,1.7-1.71,1.7h-8.18c-.68,0-1.02.34-1.02,1.02v58.1c0,5,2.33,7.5,6.99,7.5h2.21c1.13,0,1.71.57,1.71,1.7v4.6c0,1.14-.57,1.7-1.71,1.7h-3.07Z"/>
    <path class="st0" d="M478.12,75.13c0,5.11-.03,9.23-.08,12.35-.06,3.13-.14,5.65-.26,7.58-.11,1.93-.29,3.49-.51,4.69-.23,1.19-.51,2.36-.85,3.49-1.48,4.66-3.95,8.15-7.41,10.48-3.47,2.33-7.7,3.49-12.69,3.49s-9.23-1.17-12.69-3.49c-3.47-2.33-5.94-5.82-7.41-10.48-.34-1.13-.63-2.3-.85-3.49-.23-1.19-.4-2.75-.51-4.69-.11-1.93-.2-4.46-.25-7.58-.06-3.12-.09-7.24-.09-12.35s.03-9.06.09-12.18c.06-3.12.14-5.65.25-7.58.11-1.93.28-3.49.51-4.69.23-1.19.51-2.36.85-3.49,1.47-4.66,3.95-8.15,7.41-10.48,3.46-2.33,7.69-3.49,12.69-3.49s9.23,1.17,12.69,3.49c3.46,2.33,5.93,5.82,7.41,10.48.34,1.14.62,2.3.85,3.49.23,1.19.4,2.75.51,4.69.11,1.93.2,4.46.26,7.58.06,3.12.08,7.18.08,12.18ZM469.77,75.13c0-4.77-.03-8.6-.08-11.5-.06-2.9-.11-5.22-.17-6.99-.06-1.76-.17-3.12-.34-4.09-.17-.96-.43-1.9-.77-2.81-1.82-5.68-5.85-8.52-12.1-8.52s-10.28,2.84-12.1,8.52c-.34.91-.6,1.85-.77,2.81-.17.97-.28,2.33-.34,4.09-.06,1.76-.12,4.09-.17,6.99-.06,2.9-.08,6.73-.08,11.5s.03,8.63.08,11.58c.06,2.96.11,5.31.17,7.07.06,1.76.17,3.13.34,4.09.17.97.43,1.9.77,2.81,1.82,5.68,5.85,8.52,12.1,8.52s10.28-2.84,12.1-8.52c.34-.91.6-1.84.77-2.81.17-.96.28-2.33.34-4.09.06-1.76.11-4.12.17-7.07.06-2.95.08-6.81.08-11.58Z"/>
    <path class="st0" d="M517.64,116.87c-4.54-.11-8.35-.66-11.42-1.62-3.07-.96-5.57-2.44-7.5-4.43-1.93-1.99-3.32-4.54-4.17-7.67-.85-3.12-1.28-6.84-1.28-11.16V1.7c0-1.13.57-1.7,1.7-1.7h13.97c1.13,0,1.7.57,1.7,1.7v90.3c0,2.73.54,4.77,1.62,6.13,1.08,1.36,2.75,2.27,5.03,2.73l.85.17c1.13.23,1.7.85,1.7,1.87v12.27c0,1.13-.57,1.7-1.7,1.7h-.51Z"/>
    <path class="st0" d="M572.4,75.3c0,1.14-.57,1.7-1.7,1.7h-31.86c-.68,0-1.02.34-1.02,1.02,0,4.2.03,7.61.08,10.22.06,2.61.17,4.74.34,6.39.17,1.65.34,2.93.51,3.83.17.91.37,1.7.6,2.39.91,2.84,2.36,4.94,4.34,6.3,1.99,1.36,4.34,2.04,7.07,2.04,3.52,0,6.3-.88,8.35-2.64,2.04-1.76,3.63-4.63,4.77-8.6.34-1.13,1.02-1.53,2.04-1.19l4.6,1.02c1.02.23,1.36.91,1.02,2.04-1.25,5.79-3.64,10.14-7.16,13.03-3.52,2.9-8.12,4.34-13.8,4.34-4.77,0-8.8-1.17-12.1-3.49-3.3-2.33-5.68-5.76-7.16-10.31-.34-.79-.62-1.76-.85-2.9-.23-1.13-.43-2.7-.6-4.69-.17-1.99-.28-4.63-.34-7.92-.06-3.29-.09-7.5-.09-12.61s.03-9.31.09-12.61c.06-3.29.17-5.93.34-7.92.17-1.99.37-3.55.6-4.69.23-1.13.51-2.16.85-3.07,2.95-9.2,9.48-13.8,19.59-13.8s16.64,4.6,19.59,13.8c.34.91.62,1.93.85,3.07.23,1.14.43,2.7.6,4.69.17,1.99.28,4.63.34,7.92.06,3.3.08,7.5.08,12.61ZM563.03,69.68c.68,0,1.02-.34,1.02-1.02,0-3.29-.03-6.02-.09-8.18-.06-2.16-.17-3.95-.34-5.37-.17-1.42-.34-2.53-.51-3.32-.17-.79-.37-1.48-.6-2.04-1.93-5.68-5.79-8.52-11.58-8.52s-9.66,2.84-11.58,8.52c-.23.57-.43,1.25-.6,2.04-.17.8-.34,1.9-.51,3.32-.17,1.42-.29,3.21-.34,5.37-.06,2.16-.08,4.88-.08,8.18,0,.68.34,1.02,1.02,1.02h24.19Z"/>
    <path class="st0" d="M623.07,115.85c-1.02,0-1.76-.45-2.21-1.36l-11.16-24.7h-.17l-10.99,24.7c-.46.91-1.26,1.36-2.41,1.36h-14.11c-1.26,0-1.54-.62-.86-1.87l19.76-40.38-18.57-37.99c-.68-1.25-.4-1.87.86-1.87h14.11c1.14,0,1.95.46,2.41,1.36l10.3,22.32h.17l9.63-22.32c.46-.91,1.26-1.36,2.41-1.36h14.11c1.14,0,1.43.63.86,1.87l-18.74,37.99,19.76,40.38c.57,1.25.28,1.87-.85,1.87h-14.31Z"/>
  </g>
  <g>
    <path class="st0" d="M75.36,121.25l-11.07,18.83,128.83-.55L111.44,1.21h-22.95l68.03,114.71c.67,1.13.68,2.54.03,3.68-.65,1.14-1.86,1.84-3.18,1.84h0l-29.77-.07c-.45.08-.91.08-1.35,0l-46.53-.1c-.12,0-.24,0-.35-.02Z"/>
    <path class="st0" d="M57.89,147.42h-.02c-1.31,0-2.52-.7-3.17-1.84-.66-1.14-.65-2.54.02-3.68l38.82-66.02-11.52-19.22-63.9,108.45h164.63l10.44-18.27-135.3.57Z"/>
    <path class="st0" d="M11.62,161.72L78.84,47.64c.66-1.11,1.85-1.8,3.14-1.8h.01c1.29,0,2.48.67,3.14,1.78l15.79,26.35s0,.02.01.02l24.02,40.07,21.98.05L82.06,4.72,0,143.11l11.62,18.61Z"/>
  </g>
</svg>